# xmcd
#
# Track frame offsets:
#	150
#	14720
#	28067
#	37237
#	48935
#	62262
#	74395
#	85095
#	96140
#	108517
#	119885
#	139182
#	151127
#	164230
#	176137
#	189460
#	202977
#	216687
#	230377
#	245462
#	258725
#
# Disc length: 3610 seconds
#
# Revision: 0
# Processed by: cddbd v1.4PL0 Copyright (c) Steve Scherf et al.
# Submitted via: EasyCDDAExtractor 5.0.5.1
#
DISCID=400e1815
DTITLE=Tammy Wynette - Anniversary: Twenty Years Of Hits
DYEAR=1987
DGENRE=Country
TTITLE0=Alive And Well
TTITLE1=Apartment No. 9
TTITLE2=Your Good Girl's Gonna Go Bad
TTITLE3=I Don't Wanna Play House
TTITLE4=D-I-V-O-R-C-E
TTITLE5=Stand By Your Man
TTITLE6=Singing My Song
TTITLE7=Run, Woman, Run
TTITLE8=We Sure Can Love Each Other
TTITLE9=Good Lovin' (Makes It Right)
TTITLE10=Bedtime Story
TTITLE11='Til I Get It Right
TTITLE12=Kids Say The Darndest Things
TTITLE13=Another Lonely Song
TTITLE14=We're Gonna Hold On
TTITLE15=Woman To Woman
TTITLE16='Til I Can Make It On My Own
TTITLE17=Golden Ring
TTITLE18=You And Me
TTITLE19=One Of A Kind
TTITLE20=Two Story House
EXTD=
EXTT0=
EXTT1=
EXTT2=
EXTT3=
EXTT4=
EXTT5=
EXTT6=
EXTT7=
EXTT8=
EXTT9=
EXTT10=
EXTT11=
EXTT12=
EXTT13=
EXTT14=
EXTT15=
EXTT16=
EXTT17=
EXTT18=
EXTT19=
EXTT20=
PLAYORDER=
